<svg xmlns="http://www.w3.org/2000/svg" width="341.333" height="341.333" preserveAspectRatio="xMidYMid meet" version="1.0" viewBox="0 0 256 256"><metadata>Created by potrace 1.14, written by Peter Selinger 2001-2017</metadata><g fill="#000" stroke="none"><path d="M1158 2555 c-1 -2 -28 -6 -58 -10 -30 -3 -73 -11 -95 -17 -22 -5 -48 -12 -58 -14 -42 -8 -178 -59 -242 -91 -141 -71 -244 -152 -402 -318 -36 -38 -130 -180 -162 -245 -56 -112 -101 -242 -115 -330 -3 -19 -9 -48 -12 -65 -12 -61 -11 -283 1 -365 97 -651 645 -1113 1295 -1094 145 4 206 13 320 45 199 57 392 170 548 320 252 244 386 581 377 949 -4 142 -20 234 -65 370 -64 191 -160 341 -319 500 -111 110 -196 173 -319 234 -84 42 -258 101 -328 112 -27 3 -58 9 -69 11 -25 5 -292 13 -297 8z" transform="translate(0.000000,256.000000) scale(0.100000,-0.100000)"/></g></svg>